<svg width="211" height="40" viewBox="0 0 211 40" fill="none" xmlns="http://www.w3.org/2000/svg">
<g clip-path="url(#clip0_8890_13968)">
<rect width="40" height="40" fill="#00B259"/>
<path d="M26.2455 12.4998H14.058C12.0689 12.4709 10.1456 13.2116 8.68971 14.5673C7.23387 15.9229 6.35816 17.7887 6.24552 19.7748C6.20261 21.2134 6.57452 22.634 7.31686 23.867C8.05921 25.1 9.14064 26.0933 10.4321 26.7285C11.7236 27.3637 13.1705 27.6139 14.6003 27.4492C16.0301 27.2846 17.3823 26.712 18.4955 25.7998C18.9281 25.4529 19.466 25.2639 20.0205 25.2639C20.575 25.2639 21.113 25.4529 21.5455 25.7998C22.3292 26.4492 23.2401 26.9275 24.2195 27.204C25.199 27.4806 26.2255 27.5493 27.2331 27.4057C28.2406 27.262 29.2071 26.9093 30.0703 26.3702C30.9335 25.831 31.6744 25.1173 32.2455 24.2748C33.0186 23.1611 33.4754 21.8586 33.5672 20.5059C33.659 19.1533 33.3824 17.801 32.7669 16.593C32.1513 15.385 31.2199 14.3665 30.0715 13.6457C28.9232 12.925 27.601 12.529 26.2455 12.4998ZM16.7455 20.4998C16.6667 20.6793 16.5468 20.8378 16.3955 20.9623L13.2955 23.4623C13.0706 23.6487 12.7876 23.7504 12.4955 23.7498C12.3088 23.7529 12.1242 23.71 11.958 23.6248C11.7426 23.5238 11.5604 23.3633 11.433 23.1623C11.3036 22.9662 11.2381 22.7347 11.2455 22.4998V17.4998C11.2461 17.2603 11.3156 17.026 11.4455 16.8248C11.5729 16.6238 11.7551 16.4634 11.9705 16.3623C12.1718 16.2629 12.3975 16.2238 12.6205 16.2498C12.8415 16.2758 13.0523 16.3575 13.233 16.4873L16.3955 18.9873C16.5438 19.1048 16.6635 19.2544 16.7455 19.4248C16.8255 19.5927 16.867 19.7764 16.867 19.9623C16.867 20.1483 16.8255 20.3319 16.7455 20.4998ZM26.8705 16.2498C27.1198 16.2493 27.3636 16.3233 27.5705 16.4623C27.7757 16.5981 27.9331 16.7949 28.0205 17.0248C28.117 17.2537 28.1431 17.5061 28.0955 17.7498C28.0465 17.9901 27.928 18.2106 27.7546 18.3839C27.5813 18.5573 27.3607 18.6759 27.1205 18.7248C26.8768 18.7724 26.6244 18.7463 26.3955 18.6498C26.1655 18.5624 25.9688 18.405 25.833 18.1998C25.7059 18.0117 25.6323 17.7925 25.6204 17.5657C25.6084 17.3389 25.6584 17.1132 25.7651 16.9127C25.8718 16.7122 26.031 16.5446 26.2258 16.4278C26.4205 16.311 26.6434 16.2495 26.8705 16.2498ZM24.3705 21.2498C24.1212 21.2504 23.8774 21.1764 23.6705 21.0373C23.4653 20.9016 23.3079 20.7048 23.2205 20.4748C23.1241 20.246 23.0979 19.9936 23.1455 19.7498C23.1901 19.5051 23.3066 19.2791 23.4803 19.101C23.654 18.9228 23.8769 18.8006 24.1205 18.7498C24.3643 18.7023 24.6167 18.7284 24.8455 18.8248C25.0755 18.9123 25.2723 19.0697 25.408 19.2748C25.5421 19.4631 25.6214 19.6849 25.637 19.9156C25.6526 20.1462 25.604 20.3767 25.4965 20.5813C25.389 20.786 25.2268 20.9568 25.028 21.0748C24.8293 21.1928 24.6017 21.2534 24.3705 21.2498ZM26.8705 23.7498C26.6212 23.7504 26.3774 23.6764 26.1705 23.5373C25.9653 23.4016 25.8079 23.2048 25.7205 22.9748C25.6241 22.746 25.5979 22.4936 25.6455 22.2498C25.6901 22.005 25.8066 21.7791 25.9803 21.601C26.154 21.4228 26.3769 21.3006 26.6205 21.2498C26.8643 21.2023 27.1167 21.2284 27.3455 21.3248C27.5755 21.4123 27.7723 21.5697 27.908 21.7748C28.0421 21.9631 28.1214 22.1849 28.137 22.4156C28.1526 22.6462 28.104 22.8767 27.9965 23.0813C27.889 23.286 27.7268 23.4568 27.528 23.5748C27.3293 23.6928 27.1017 23.7534 26.8705 23.7498ZM29.3705 21.2498C29.1212 21.2504 28.8774 21.1764 28.6705 21.0373C28.4653 20.9016 28.3079 20.7048 28.2205 20.4748C28.1241 20.246 28.0979 19.9936 28.1455 19.7498C28.1901 19.5051 28.3066 19.2791 28.4803 19.101C28.654 18.9228 28.8769 18.8006 29.1205 18.7498C29.3643 18.7023 29.6167 18.7284 29.8455 18.8248C30.0755 18.9123 30.2723 19.0697 30.408 19.2748C30.5421 19.4631 30.6214 19.6849 30.637 19.9156C30.6526 20.1462 30.604 20.3767 30.4965 20.5813C30.389 20.786 30.2268 20.9568 30.028 21.0748C29.8293 21.1928 29.6017 21.2534 29.3705 21.2498Z" fill="white"/>
</g>
<path d="M51.7879 23.0957C51.7879 23.6411 51.74 24.0833 51.6442 24.4223C51.5484 24.7614 51.3826 25.0193 51.1467 25.1962C50.9109 25.3731 50.5792 25.4615 50.1518 25.4615C49.5474 25.4615 49.1089 25.2847 48.8362 24.9309C48.5635 24.5771 48.4271 24.0096 48.4271 23.2284H45V23.56C45 24.5919 45.1953 25.4763 45.5859 26.2133C45.9766 26.9503 46.5588 27.5141 47.3327 27.9048C48.1065 28.2954 49.061 28.4907 50.196 28.4907C51.4342 28.4907 52.4513 28.288 53.2472 27.8826C54.0432 27.4773 54.6328 26.8729 55.0161 26.0696C55.3993 25.2662 55.591 24.2749 55.591 23.0957V12.8585H51.7879V23.0957ZM83.3385 22.4987H86.5838C86.558 22.968 86.4647 23.3807 86.3013 23.7369C86.0507 24.2823 85.6638 24.6987 85.1405 24.9862C84.6172 25.2736 83.9871 25.4173 83.2501 25.4173C82.3509 25.4173 81.6102 25.2036 81.0279 24.7761C80.4457 24.3486 80.0219 23.7664 79.7566 23.0294C79.4913 22.2924 79.3586 21.4522 79.3586 20.5088C79.3586 19.5654 79.4913 18.7252 79.7566 17.9882C80.0219 17.2511 80.4383 16.6689 81.0058 16.2414C81.5733 15.814 82.2993 15.6002 83.1837 15.6002C83.7144 15.6002 84.1934 15.6813 84.6209 15.8434C85.0484 16.0056 85.3985 16.2488 85.6712 16.5731C85.9439 16.8974 86.1318 17.2585 86.235 17.6565H89.8832C89.7211 16.5657 89.3268 15.6334 88.7003 14.8595C88.0738 14.0856 87.2852 13.4997 86.3345 13.1017C85.3837 12.7037 84.304 12.5047 83.0953 12.5047C81.5623 12.5047 80.2246 12.8438 79.0822 13.5218C77.9398 14.1999 77.0554 15.1506 76.4289 16.3741C75.8025 17.5975 75.4892 18.9979 75.4892 20.5751C75.4892 22.1523 75.7951 23.4495 76.4068 24.6434C77.0186 25.8374 77.8956 26.7771 79.038 27.4625C80.1804 28.148 81.5254 28.4907 83.0732 28.4907C84.4588 28.4907 85.6785 28.229 86.7325 27.7058C87.7864 27.1825 88.6119 26.3865 89.2089 25.3178C89.8058 24.2491 90.1043 22.9188 90.1043 21.3269V19.9118H83.3385V22.4987ZM60.3116 11.753C60.0094 11.5908 59.6667 11.5098 59.2834 11.5098C58.8707 11.5098 58.5132 11.5908 58.2111 11.753C57.9089 11.9151 57.673 12.1289 57.5035 12.3942C57.334 12.6595 57.2493 12.9764 57.2493 13.3449C57.2493 13.7135 57.334 14.0341 57.5035 14.3068C57.673 14.5794 57.9052 14.8006 58.2 14.9701C58.4948 15.1396 58.8486 15.2243 59.2613 15.2243C59.674 15.2243 60.0131 15.1433 60.3226 14.9811C60.6322 14.819 60.8643 14.5979 61.0191 14.3178C61.1739 14.0377 61.2513 13.7208 61.2513 13.3671C61.2513 13.0133 61.1702 12.6779 61.0081 12.4052C60.8459 12.1325 60.6137 11.9151 60.3116 11.753ZM57.5367 28.1369H60.9859V16.5952H57.5367V28.1369ZM99.7568 16.7831C98.9977 16.4515 98.0285 16.2856 96.8493 16.2856C95.6701 16.2856 94.7746 16.4146 94.0302 16.6726C93.2858 16.9305 92.7109 17.3138 92.3056 17.8223C91.9002 18.3309 91.6386 18.9463 91.5206 19.6686H94.8151C94.9036 19.2853 95.0989 18.9905 95.401 18.7841C95.7032 18.5778 96.1417 18.4746 96.7166 18.4746C97.1883 18.4746 97.5642 18.552 97.8443 18.7068C98.1243 18.8615 98.3233 19.0937 98.4412 19.4032C98.5592 19.7128 98.6181 20.1034 98.6181 20.5751V21.1058H96.7608C95.5374 21.1058 94.5019 21.2421 93.6543 21.5148C92.8067 21.7875 92.1618 22.1929 91.7196 22.7309C91.2774 23.2689 91.0563 23.9654 91.0563 24.8203C91.0563 25.5721 91.2185 26.2207 91.5427 26.7661C91.867 27.3115 92.3277 27.7279 92.9247 28.0153C93.5216 28.3027 94.2255 28.4465 95.0362 28.4465C95.6406 28.4465 96.1823 28.3691 96.6613 28.2143C97.1404 28.0595 97.531 27.8568 97.8332 27.6063C98.1354 27.3557 98.397 27.0609 98.6181 26.7218H98.7287L98.8835 28.1369H101.957V20.8625C101.957 19.8307 101.78 18.9758 101.426 18.2977C101.072 17.6197 100.516 17.1148 99.7568 16.7831ZM98.6181 23.7369C98.6181 24.2381 98.5149 24.6729 98.3086 25.0414C98.1022 25.4099 97.8332 25.6863 97.5015 25.8706C97.1699 26.0548 96.7756 26.147 96.3186 26.147C95.9649 26.147 95.6627 26.088 95.4121 25.9701C95.1615 25.8522 94.9588 25.679 94.8041 25.4505C94.6493 25.222 94.5719 24.9309 94.5719 24.5771C94.5719 24.1644 94.6824 23.8364 94.9036 23.5932C95.1247 23.35 95.4416 23.1731 95.8543 23.0625C96.267 22.952 96.7608 22.8967 97.3357 22.8967H98.6181V23.7369ZM71.5106 17.0816C70.6114 16.5657 69.5575 16.3078 68.3488 16.3078C67.14 16.3078 66.1082 16.5583 65.2091 17.0595C64.3099 17.5607 63.6245 18.2719 63.1528 19.1932C62.6811 20.1145 62.4452 21.1721 62.4452 22.3661C62.4452 23.56 62.6811 24.6361 63.1528 25.55C63.6245 26.4639 64.3099 27.1751 65.2091 27.6836C66.1082 28.1922 67.1622 28.4465 68.3709 28.4465C69.5796 28.4465 70.6261 28.1922 71.5106 27.6836C72.395 27.1751 73.0767 26.4676 73.5558 25.561C74.0349 24.6545 74.2744 23.5895 74.2744 22.3661C74.2744 21.1426 74.0385 20.1218 73.5669 19.2153C73.0952 18.3088 72.4097 17.5975 71.5106 17.0816ZM70.5266 24.2565C70.3424 24.7651 70.066 25.1594 69.6975 25.4394C69.329 25.7195 68.8868 25.8595 68.3709 25.8595C67.855 25.8595 67.4127 25.7195 67.0442 25.4394C66.6757 25.1594 66.3957 24.7614 66.204 24.2455C66.0124 23.7295 65.9166 23.1104 65.9166 22.3882C65.9166 21.6659 66.0124 20.9989 66.204 20.4756C66.3957 19.9523 66.6757 19.5543 67.0442 19.2816C67.4127 19.0089 67.8476 18.8726 68.3488 18.8726C68.9089 18.8726 69.3695 19.02 69.7307 19.3148C70.0918 19.6096 70.3608 20.0186 70.5377 20.5419C70.7146 21.0652 70.803 21.6806 70.803 22.3882C70.803 23.0957 70.7109 23.748 70.5266 24.2565ZM194.395 23.0736C194.395 23.9728 194.222 24.6324 193.875 25.0525C193.529 25.4726 193.017 25.6826 192.339 25.6826C191.661 25.6826 191.141 25.4689 190.824 25.0414C190.507 24.614 190.349 23.9654 190.349 23.0957V16.5952H186.899V24.0022C186.899 25.491 187.239 26.6039 187.917 27.3409C188.595 28.078 189.612 28.4465 190.968 28.4465C191.734 28.4465 192.405 28.2843 192.98 27.96C193.555 27.6357 194.034 27.1714 194.417 26.5671H194.506L194.55 28.1369H197.844V16.5952H194.395V23.0736ZM168.884 28.1369H172.334V12.35H168.884V28.1369ZM182.88 17.0816C181.981 16.5657 180.927 16.3078 179.718 16.3078C178.51 16.3078 177.478 16.5583 176.579 17.0595C175.68 17.5607 174.994 18.2719 174.522 19.1932C174.051 20.1145 173.815 21.1721 173.815 22.3661C173.815 23.56 174.051 24.6361 174.522 25.55C174.994 26.4639 175.68 27.1751 176.579 27.6836C177.478 28.1922 178.532 28.4465 179.741 28.4465C180.949 28.4465 181.996 28.1922 182.88 27.6836C183.765 27.1751 184.446 26.4676 184.925 25.561C185.405 24.6545 185.644 23.5895 185.644 22.3661C185.644 21.1426 185.408 20.1218 184.937 19.2153C184.465 18.3088 183.779 17.5975 182.88 17.0816ZM181.896 24.2565C181.712 24.7651 181.436 25.1594 181.067 25.4394C180.699 25.7195 180.256 25.8595 179.741 25.8595C179.225 25.8595 178.782 25.7195 178.414 25.4394C178.045 25.1594 177.765 24.7614 177.574 24.2455C177.382 23.7295 177.286 23.1104 177.286 22.3882C177.286 21.6659 177.382 20.9989 177.574 20.4756C177.765 19.9523 178.045 19.5543 178.414 19.2816C178.782 19.0089 179.217 18.8726 179.718 18.8726C180.279 18.8726 180.739 19.02 181.1 19.3148C181.462 19.6096 181.731 20.0186 181.907 20.5419C182.084 21.0652 182.173 21.6806 182.173 22.3882C182.173 23.0957 182.081 23.748 181.896 24.2565ZM207.551 12.35V18.0766H207.44C207.116 17.5165 206.659 17.0816 206.069 16.7721C205.48 16.4625 204.846 16.3078 204.168 16.3078C203.136 16.3078 202.255 16.5657 201.526 17.0816C200.796 17.5975 200.243 18.3088 199.867 19.2153C199.491 20.1218 199.304 21.15 199.304 22.2997C199.304 23.4495 199.491 24.4887 199.867 25.4173C200.243 26.346 200.8 27.083 201.537 27.6284C202.274 28.1738 203.165 28.4465 204.212 28.4465C204.949 28.4465 205.601 28.2954 206.169 27.9932C206.736 27.691 207.204 27.2378 207.573 26.6334H207.683L207.75 28.1369H211V12.35H207.551ZM207.396 24.2344C207.219 24.7577 206.943 25.1594 206.567 25.4394C206.191 25.7195 205.73 25.8595 205.185 25.8595C204.684 25.8595 204.249 25.7084 203.88 25.4063C203.512 25.1041 203.236 24.6914 203.051 24.1681C202.867 23.6448 202.775 23.0441 202.775 22.3661C202.775 21.688 202.867 21.0431 203.051 20.5198C203.236 19.9965 203.512 19.5912 203.88 19.3037C204.249 19.0163 204.684 18.8726 205.185 18.8726C205.745 18.8726 206.209 19.0163 206.578 19.3037C206.946 19.5912 207.219 19.9929 207.396 20.5088C207.573 21.0247 207.661 21.6438 207.661 22.3661C207.661 23.0883 207.573 23.7111 207.396 24.2344ZM163.18 24.1902C162.9 24.5808 162.546 24.8756 162.118 25.0746C161.691 25.2736 161.19 25.3731 160.615 25.3731C159.775 25.3731 159.075 25.163 158.514 24.7429C157.954 24.3228 157.538 23.7443 157.265 23.0073C156.992 22.2702 156.856 21.43 156.856 20.4867C156.856 19.5433 156.992 18.6441 157.265 17.9218C157.538 17.1996 157.954 16.6357 158.514 16.2304C159.075 15.825 159.775 15.6223 160.615 15.6223C161.131 15.6223 161.595 15.7034 162.008 15.8655C162.421 16.0277 162.771 16.2672 163.058 16.5841C163.346 16.9011 163.534 17.2659 163.622 17.6786H167.337C167.189 16.5731 166.813 15.6297 166.209 14.8485C165.605 14.0672 164.831 13.4813 163.887 13.0907C162.944 12.7001 161.86 12.5047 160.637 12.5047C159.075 12.5047 157.715 12.8475 156.558 13.5329C155.401 14.2183 154.516 15.1654 153.904 16.3741C153.293 17.5828 152.987 18.9537 152.987 20.4867C152.987 22.0197 153.289 23.4126 153.893 24.6213C154.498 25.83 155.371 26.7771 156.513 27.4625C157.656 28.148 159.023 28.4907 160.615 28.4907C161.883 28.4907 163.021 28.2548 164.031 27.7831C165.041 27.3115 165.848 26.6408 166.452 25.7711C167.056 24.9014 167.396 23.9064 167.469 22.7862H163.688C163.629 23.3316 163.46 23.7996 163.18 24.1902ZM119.568 16.7942C118.986 16.4699 118.282 16.3078 117.456 16.3078C116.631 16.3078 115.964 16.4625 115.367 16.7721C114.77 17.0816 114.258 17.5607 113.83 18.2093H113.742C113.491 17.5902 113.089 17.1185 112.537 16.7942C111.984 16.4699 111.317 16.3078 110.536 16.3078C109.754 16.3078 109.102 16.4662 108.535 16.7831C107.967 17.1001 107.492 17.5681 107.109 18.1872H106.998L106.932 16.5952H103.704V28.1369H107.153V21.5037C107.153 20.6488 107.311 20.015 107.628 19.6022C107.945 19.1895 108.413 18.9831 109.032 18.9831C109.651 18.9831 110.101 19.1932 110.381 19.6133C110.661 20.0334 110.801 20.6635 110.801 21.5037V28.1369H114.272V21.5037C114.272 20.9436 114.342 20.4719 114.482 20.0887C114.622 19.7054 114.833 19.4254 115.113 19.2485C115.393 19.0716 115.732 18.9831 116.13 18.9831C116.734 18.9831 117.176 19.1895 117.456 19.6022C117.736 20.015 117.876 20.6488 117.876 21.5037V28.1369H121.348V20.4203C121.348 19.5506 121.197 18.8099 120.895 18.1982C120.592 17.5865 120.15 17.1185 119.568 16.7942ZM131.795 17.0927C130.933 16.5694 129.875 16.3078 128.622 16.3078C127.458 16.3078 126.433 16.5694 125.549 17.0927C124.664 17.616 123.979 18.3419 123.493 19.2706C123.006 20.1992 122.763 21.2384 122.763 22.3882C122.763 23.6411 123.01 24.7208 123.504 25.6274C123.997 26.5339 124.686 27.2304 125.571 27.7168C126.455 28.2032 127.495 28.4465 128.688 28.4465C130.118 28.4465 131.305 28.1406 132.248 27.5289C133.192 26.9171 133.84 26.0438 134.194 24.9088H131.054C130.907 25.2625 130.645 25.5426 130.269 25.749C129.894 25.9553 129.426 26.0585 128.865 26.0585C128.276 26.0585 127.782 25.9406 127.384 25.7048C126.986 25.4689 126.684 25.1409 126.477 24.7208C126.276 24.3106 126.159 23.8057 126.126 23.2063H134.415V22.7862C134.415 21.4743 134.194 20.3282 133.752 19.348C133.31 18.3677 132.657 17.616 131.795 17.0927ZM126.124 21.1721V21.15C126.183 20.6341 126.323 20.1919 126.544 19.8233C126.765 19.4548 127.056 19.1748 127.417 18.9831C127.778 18.7915 128.195 18.6957 128.666 18.6957C129.138 18.6957 129.551 18.7952 129.905 18.9942C130.258 19.1932 130.535 19.4806 130.734 19.8565C130.933 20.2324 131.047 20.6709 131.076 21.1721H126.124ZM144.221 21.7801C143.668 21.4927 142.987 21.2605 142.176 21.0836L140.717 20.7962C140.068 20.6635 139.6 20.4977 139.313 20.2987C139.025 20.0997 138.881 19.8381 138.881 19.5138C138.881 19.2927 138.951 19.1011 139.092 18.9389C139.232 18.7768 139.427 18.6552 139.677 18.5741C139.928 18.493 140.223 18.4525 140.562 18.4525C141.122 18.4525 141.561 18.552 141.877 18.751C142.194 18.95 142.375 19.2411 142.419 19.6243H145.581C145.522 18.5483 145.061 17.7265 144.199 17.159C143.337 16.5915 142.132 16.3078 140.584 16.3078C139.611 16.3078 138.745 16.4331 137.986 16.6836C137.227 16.9342 136.626 17.3248 136.184 17.8555C135.742 18.3862 135.521 19.0421 135.521 19.8233C135.521 20.7372 135.812 21.4558 136.394 21.9791C136.976 22.5024 137.872 22.9041 139.08 23.1841L140.496 23.4937L140.739 23.5379C141.151 23.6558 141.491 23.7701 141.756 23.8806C142.021 23.9912 142.228 24.1312 142.375 24.3007C142.522 24.4702 142.596 24.6803 142.596 24.9309C142.596 25.211 142.511 25.4431 142.342 25.6274C142.172 25.8116 141.944 25.9517 141.656 26.0475C141.369 26.1433 141.048 26.1912 140.695 26.1912C140.061 26.1912 139.56 26.0733 139.191 25.8374C138.823 25.6016 138.616 25.2478 138.572 24.7761H135.277C135.322 26.0143 135.827 26.9356 136.792 27.5399C137.758 28.1443 139.044 28.4465 140.65 28.4465C141.697 28.4465 142.607 28.3101 143.381 28.0374C144.155 27.7647 144.774 27.3446 145.238 26.7771C145.703 26.2096 145.935 25.4763 145.935 24.5771C145.935 23.9285 145.787 23.3721 145.493 22.9078C145.198 22.4434 144.774 22.0676 144.221 21.7801Z" fill="white"/>
<defs>
<clipPath id="clip0_8890_13968">
<rect width="40" height="40" rx="20" fill="white"/>
</clipPath>
</defs>
</svg>
