<svg width="91" height="24" viewBox="0 0 91 24" fill="none" xmlns="http://www.w3.org/2000/svg">
<mask id="mask0_249_9378" style="mask-type:luminance" maskUnits="userSpaceOnUse" x="0" y="0" width="91" height="30">
<path d="M90.925 0H0V30H90.925V0Z" fill="white"/>
</mask>
<g mask="url(#mask0_249_9378)">
<path d="M15.5813 5.46747C15.2738 5.30247 14.925 5.21997 14.535 5.21997C14.115 5.21997 13.7513 5.30247 13.4438 5.46747C13.1363 5.63247 12.8962 5.84997 12.7237 6.11997C12.5512 6.38997 12.465 6.71247 12.465 7.08747C12.465 7.46247 12.5512 7.78872 12.7237 8.06622C12.8962 8.34372 13.1325 8.56872 13.4325 8.74122C13.7325 8.91372 14.0925 8.99997 14.5125 8.99997C14.9325 8.99997 15.2775 8.91747 15.5925 8.75247C15.9075 8.58747 16.1438 8.36247 16.3013 8.07747C16.4588 7.79247 16.5375 7.46997 16.5375 7.10997C16.5375 6.74997 16.455 6.40872 16.29 6.13122C16.125 5.85372 15.8888 5.63247 15.5813 5.46747ZM6.9075 17.0099C6.9075 17.5649 6.85875 18.0149 6.76125 18.3599C6.66375 18.7049 6.495 18.9674 6.255 19.1474C6.015 19.3274 5.6775 19.4174 5.2425 19.4174C4.6275 19.4174 4.18125 19.2374 3.90375 18.8774C3.62625 18.5174 3.4875 17.9399 3.4875 17.1449H0V17.4824C0 18.5324 0.19875 19.4324 0.59625 20.1824C0.99375 20.9324 1.58625 21.5062 2.37375 21.9037C3.16125 22.3012 4.1325 22.4999 5.2875 22.4999C6.5475 22.4999 7.5825 22.2937 8.3925 21.8812C9.2025 21.4687 9.8025 20.8537 10.1925 20.0362C10.5825 19.2187 10.7775 18.2099 10.7775 17.0099V6.59247H6.9075V17.0099ZM12.7575 22.1399H16.2675V10.395H12.7575V22.1399ZM26.9775 10.89C26.0625 10.365 24.99 10.1025 23.76 10.1025C22.53 10.1025 21.48 10.3575 20.565 10.8675C19.65 11.3775 18.9525 12.1012 18.4725 13.0387C17.9925 13.9762 17.7525 15.0524 17.7525 16.2674C17.7525 17.4824 17.9925 18.5774 18.4725 19.5074C18.9525 20.4374 19.65 21.1612 20.565 21.6787C21.48 22.1962 22.5525 22.4549 23.7825 22.4549C25.0125 22.4549 26.0775 22.1962 26.9775 21.6787C27.8775 21.1612 28.5712 20.4412 29.0587 19.5187C29.5462 18.5962 29.79 17.5124 29.79 16.2674C29.79 15.0224 29.55 13.9837 29.07 13.0612C28.59 12.1387 27.8925 11.415 26.9775 10.89ZM25.9763 18.1912C25.7888 18.7087 25.5075 19.1099 25.1325 19.3949C24.7575 19.6799 24.3075 19.8224 23.7825 19.8224C23.2575 19.8224 22.8075 19.6799 22.4325 19.3949C22.0575 19.1099 21.7725 18.7049 21.5775 18.1799C21.3825 17.6549 21.285 17.0249 21.285 16.2899C21.285 15.5549 21.3825 14.8762 21.5775 14.3437C21.7725 13.8112 22.0575 13.4062 22.4325 13.1287C22.8075 12.8512 23.25 12.7124 23.76 12.7124C24.33 12.7124 24.7987 12.8624 25.1662 13.1624C25.5337 13.4624 25.8075 13.8787 25.9875 14.4112C26.1675 14.9437 26.2575 15.5699 26.2575 16.2899C26.2575 17.0099 26.1638 17.6737 25.9763 18.1912ZM40.92 12.42H35.16V6.59247H31.29V22.1399H35.16V15.6599H40.92V22.1399H44.79V6.59247H40.92V12.42ZM75.9925 10.5975C75.4 10.2675 74.6838 10.1025 73.8438 10.1025C73.0038 10.1025 72.325 10.26 71.7175 10.575C71.11 10.89 70.5888 11.3775 70.1538 12.0375H70.0637C69.8087 11.4075 69.4 10.9275 68.8375 10.5975C68.275 10.2675 67.5963 10.1025 66.8013 10.1025C66.0063 10.1025 65.3425 10.2637 64.765 10.5862C64.1875 10.9087 63.7038 11.385 63.3138 12.015H63.2013L63.1337 10.395H59.8488V22.1399H63.3588V15.3899C63.3588 14.5199 63.52 13.8749 63.8425 13.4549C64.165 13.0349 64.6412 12.8249 65.2712 12.8249C65.9012 12.8249 66.3587 13.0387 66.6437 13.4662C66.9287 13.8937 67.0713 14.5349 67.0713 15.3899V22.1399H70.6038V15.3899C70.6038 14.8199 70.675 14.3399 70.8175 13.9499C70.96 13.5599 71.1737 13.2749 71.4587 13.0949C71.7437 12.9149 72.0887 12.8249 72.4937 12.8249C73.1087 12.8249 73.5588 13.0349 73.8438 13.4549C74.1288 13.8749 74.2712 14.5199 74.2712 15.3899V22.1399H77.8038V14.2874C77.8038 13.4024 77.65 12.6487 77.3425 12.0262C77.035 11.4037 76.585 10.9275 75.9925 10.5975ZM90.9212 16.6949C90.9212 15.3599 90.6962 14.1937 90.2462 13.1962C89.7962 12.1987 89.1325 11.4337 88.255 10.9012C87.3775 10.3687 86.3013 10.1025 85.0263 10.1025C83.8413 10.1025 82.7987 10.3687 81.8987 10.9012C80.9987 11.4337 80.3013 12.1725 79.8063 13.1174C79.3113 14.0624 79.0637 15.1199 79.0637 16.2899C79.0637 17.5649 79.315 18.6637 79.8175 19.5862C80.32 20.5087 81.0213 21.2174 81.9213 21.7124C82.8213 22.2074 83.8787 22.4549 85.0937 22.4549C86.5487 22.4549 87.7562 22.1437 88.7162 21.5212C89.6762 20.8987 90.3362 20.0099 90.6962 18.8549H87.5012C87.3512 19.2149 87.085 19.4999 86.7025 19.7099C86.32 19.9199 85.8438 20.0249 85.2738 20.0249C84.6738 20.0249 84.1713 19.9049 83.7663 19.6649C83.3613 19.4249 83.0538 19.0912 82.8438 18.6637C82.6388 18.2462 82.52 17.7324 82.4862 17.1224H90.9212V16.6949ZM82.4837 15.0524V15.0299C82.5437 14.5049 82.6863 14.0549 82.9113 13.6799C83.1363 13.3049 83.4325 13.0199 83.8 12.8249C84.1675 12.6299 84.5912 12.5324 85.0712 12.5324C85.5512 12.5324 85.9713 12.6337 86.3313 12.8362C86.6913 13.0387 86.9725 13.3312 87.175 13.7137C87.3775 14.0962 87.4937 14.5424 87.5237 15.0524H82.4837ZM55.5513 10.89C54.6363 10.365 53.5638 10.1025 52.3338 10.1025C51.1038 10.1025 50.0538 10.3575 49.1388 10.8675C48.2238 11.3775 47.5263 12.1012 47.0463 13.0387C46.5663 13.9762 46.3263 15.0524 46.3263 16.2674C46.3263 17.4824 46.5663 18.5774 47.0463 19.5074C47.5263 20.4374 48.2238 21.1612 49.1388 21.6787C50.0538 22.1962 51.1262 22.4549 52.3562 22.4549C53.5862 22.4549 54.6513 22.1962 55.5513 21.6787C56.4513 21.1612 57.145 20.4412 57.6325 19.5187C58.12 18.5962 58.3638 17.5124 58.3638 16.2674C58.3638 15.0224 58.1238 13.9837 57.6438 13.0612C57.1638 12.1387 56.4663 11.415 55.5513 10.89ZM54.55 18.1912C54.3625 18.7087 54.0813 19.1099 53.7063 19.3949C53.3313 19.6799 52.8812 19.8224 52.3562 19.8224C51.8312 19.8224 51.3813 19.6799 51.0063 19.3949C50.6313 19.1099 50.3462 18.7049 50.1512 18.1799C49.9562 17.6549 49.8588 17.0249 49.8588 16.2899C49.8588 15.5549 49.9562 14.8762 50.1512 14.3437C50.3462 13.8112 50.6313 13.4062 51.0063 13.1287C51.3813 12.8512 51.8238 12.7124 52.3338 12.7124C52.9038 12.7124 53.3725 12.8624 53.74 13.1624C54.1075 13.4624 54.3812 13.8787 54.5612 14.4112C54.7412 14.9437 54.8313 15.5699 54.8313 16.2899C54.8313 17.0099 54.7375 17.6737 54.55 18.1912Z" fill="white"/>
</g>
</svg>
