<svg width="59" height="30" viewBox="0 0 59 30" fill="none" xmlns="http://www.w3.org/2000/svg">
<g clip-path="url(#clip0_6493_139144)">
<path d="M35.8775 17.01C35.8775 17.565 35.8288 18.015 35.7313 18.36C35.6338 18.705 35.465 18.9675 35.225 19.1475C34.985 19.3275 34.6475 19.4175 34.2125 19.4175C33.5975 19.4175 33.1512 19.2375 32.8737 18.8775C32.5962 18.5175 32.4575 17.94 32.4575 17.145H28.97V17.4825C28.97 18.5325 29.1687 19.4325 29.5662 20.1825C29.9637 20.9325 30.5562 21.5062 31.3438 21.9037C32.1313 22.3012 33.1025 22.5 34.2575 22.5C35.5175 22.5 36.5525 22.2937 37.3625 21.8812C38.1725 21.4687 38.7725 20.8537 39.1625 20.0362C39.5525 19.2187 39.7475 18.21 39.7475 17.01V6.59247H35.8775V17.01V17.01ZM26.3463 10.395L24.0287 18.405H23.9837L21.5987 10.395H17.8412L22.0487 21.8025C21.9137 22.2225 21.7225 22.5487 21.475 22.7812C21.2275 23.0137 20.9087 23.1825 20.5187 23.2875C20.1287 23.3925 19.5962 23.4525 18.9212 23.4675V26.3925C20.2262 26.3775 21.31 26.2425 22.1725 25.9875C23.035 25.7325 23.7888 25.2412 24.4338 24.5137C25.0788 23.7862 25.6487 22.725 26.1437 21.33L29.9912 10.395H26.3463V10.395ZM8.72875 16.8975H8.68375L5.3775 6.59247H0V22.14H3.6V11.16H3.69L7.2 22.14H10.17L13.6575 11.1375H13.77V22.14H17.3475V6.59247H11.97L8.73 16.8975H8.72875ZM44.5513 5.46747C44.2438 5.30247 43.895 5.21997 43.505 5.21997C43.085 5.21997 42.7212 5.30247 42.4137 5.46747C42.1062 5.63247 41.8662 5.84997 41.6937 6.11997C41.5212 6.38997 41.435 6.71247 41.435 7.08747C41.435 7.46247 41.5212 7.78872 41.6937 8.06622C41.8662 8.34372 42.1025 8.56872 42.4025 8.74122C42.7025 8.91372 43.0625 8.99997 43.4825 8.99997C43.9025 8.99997 44.2475 8.91747 44.5625 8.75247C44.8775 8.58747 45.1138 8.36247 45.2713 8.07747C45.4288 7.79247 45.5075 7.46997 45.5075 7.10997C45.5075 6.74997 45.425 6.40872 45.26 6.13122C45.095 5.85372 44.8588 5.63247 44.5513 5.46747V5.46747ZM41.7275 22.14H45.2375V10.395H41.7275V22.14ZM58.04 13.0612C57.56 12.1387 56.8625 11.415 55.9475 10.89C55.0325 10.365 53.96 10.1025 52.73 10.1025C51.5 10.1025 50.45 10.3575 49.535 10.8675C48.62 11.3775 47.9225 12.1012 47.4425 13.0387C46.9625 13.9762 46.7225 15.0525 46.7225 16.2675C46.7225 17.4825 46.9625 18.5775 47.4425 19.5075C47.9225 20.4375 48.62 21.1612 49.535 21.6787C50.45 22.1962 51.5225 22.455 52.7525 22.455C53.9825 22.455 55.0475 22.1962 55.9475 21.6787C56.8475 21.1612 57.5413 20.4412 58.0288 19.5187C58.5163 18.5962 58.76 17.5125 58.76 16.2675C58.76 15.0225 58.52 13.9837 58.04 13.0612ZM54.9463 18.1912C54.7588 18.7087 54.4775 19.11 54.1025 19.395C53.7275 19.68 53.2775 19.8225 52.7525 19.8225C52.2275 19.8225 51.7775 19.68 51.4025 19.395C51.0275 19.11 50.7425 18.705 50.5475 18.18C50.3525 17.655 50.255 17.025 50.255 16.29C50.255 15.555 50.3525 14.8762 50.5475 14.3437C50.7425 13.8112 51.0275 13.4062 51.4025 13.1287C51.7775 12.8512 52.22 12.7125 52.73 12.7125C53.3 12.7125 53.7687 12.8625 54.1362 13.1625C54.5037 13.4625 54.7775 13.8787 54.9575 14.4112C55.1375 14.9437 55.2275 15.57 55.2275 16.29C55.2275 17.01 55.1338 17.6737 54.9463 18.1912Z" fill="white"/>
</g>
<defs>
<clipPath id="clip0_6493_139144">
<rect width="58.7625" height="30" fill="white"/>
</clipPath>
</defs>
</svg>
