<svg width="111" height="48" viewBox="0 0 111 48" fill="none" xmlns="http://www.w3.org/2000/svg">
<g clip-path="url(#clip0_4354_14612)">
<path d="M24 0H86.4C99.6552 0 110.4 10.7448 110.4 24C110.4 37.2552 99.6552 48 86.4 48H24C10.7448 48 0 37.2552 0 24C0 10.7448 10.7448 0 24 0Z" fill="#3535F3"/>
<path d="M79.3753 22.2384L79.9609 19.4688H70.5769L70.5289 19.6128C71.2513 19.92 71.6545 20.736 71.4073 21.6024C71.3641 21.7488 69.8569 26.2872 69.8569 26.2872H72.9385C73.1545 26.0808 73.3921 25.9248 73.6441 25.8216C73.8985 25.7208 74.2057 25.668 74.5729 25.668C74.8705 25.668 75.1345 25.7232 75.3577 25.8312C75.5833 25.9416 75.7513 26.1048 75.8665 26.3232C75.9817 26.5392 76.0393 26.7936 76.0393 27.0792C76.0393 27.4224 75.9697 27.732 75.8329 28.0008C75.6961 28.2696 75.4921 28.4808 75.2233 28.6296C74.9545 28.7784 74.6353 28.8552 74.2681 28.8552C73.7881 28.8552 73.4041 28.7688 73.1257 28.596C72.8425 28.4232 72.6793 28.1832 72.6337 27.8712H69.2065C69.1489 28.6056 69.2977 29.2536 69.6529 29.8152C70.0081 30.3792 70.5673 30.8112 71.3233 31.116C72.0793 31.4208 73.0153 31.572 74.1289 31.572C75.2425 31.572 76.1713 31.3776 76.9849 30.9864C77.8009 30.5952 78.4345 30.048 78.8809 29.3424C79.3297 28.6368 79.5505 27.8256 79.5505 26.9064C79.5505 26.196 79.4137 25.5768 79.1377 25.0464C78.8641 24.5184 78.4753 24.1176 77.9761 23.8416C77.4769 23.5656 76.9009 23.4264 76.2457 23.4264C75.7273 23.4264 75.2569 23.4912 74.8345 23.616C74.4121 23.7432 74.0161 23.9256 73.6465 24.168H73.5937L74.2297 22.2384H79.3777H79.3753ZM54.6025 31.3272H64.4761L65.0761 28.5072H58.9561L59.3353 26.7024H64.6153L65.1817 24.0888H59.8849L60.2785 22.2648H66.0385L66.6409 19.4448H57.1129L54.6025 31.3272ZM86.7985 27.024H88.9561C88.8841 27.3096 88.7737 27.564 88.6225 27.7824C88.4161 28.08 88.1521 28.3104 87.8305 28.4616C87.5113 28.6176 87.1609 28.6944 86.7817 28.6944C86.3233 28.6944 85.9345 28.6008 85.6201 28.4112C85.3057 28.2192 85.0705 27.9528 84.9145 27.6096C84.7609 27.2664 84.6817 26.88 84.6817 26.4552C84.6817 25.6632 84.8017 24.9456 85.0345 24.3024C85.2697 23.6592 85.6033 23.148 86.0329 22.7688C86.4625 22.392 86.9641 22.2024 87.5377 22.2024C88.0201 22.2024 88.4041 22.3128 88.6921 22.5288C88.9777 22.7472 89.1697 23.0568 89.2609 23.46H92.8753C92.7841 22.5288 92.5105 21.744 92.0593 21.1008C91.6033 20.4576 90.9985 19.98 90.2401 19.6632C89.4841 19.3488 88.6105 19.1904 87.6265 19.1904C86.3401 19.1904 85.1785 19.5096 84.1369 20.1456C83.0977 20.7816 82.2841 21.6624 81.6913 22.788C81.1009 23.9112 80.8081 25.1736 80.8081 26.5752C80.8081 27.5856 81.0313 28.4736 81.4777 29.2344C81.9265 29.9976 82.5649 30.588 83.3977 31.008C84.2305 31.428 85.2145 31.6392 86.3497 31.6392C87.5785 31.6392 88.6489 31.3896 89.5609 30.8904C90.4753 30.3912 91.2001 29.6808 91.7401 28.764C92.2777 27.8448 92.6257 26.7648 92.7745 25.5264L92.8753 24.6648H87.2977L86.7985 27.024ZM31.3633 19.4472L21.1513 19.4448L20.4961 22.5408H23.7961L21.9385 31.3296H25.6873L27.5449 22.5408H30.6913L31.3633 19.4472ZM51.8953 19.4448L50.4145 26.4792C50.2993 27.0072 50.1625 27.4224 50.0017 27.7272C49.8433 28.032 49.6369 28.2504 49.3849 28.3896C49.1305 28.5264 48.8185 28.5936 48.4369 28.5936C48.0553 28.5936 47.7289 28.5192 47.4841 28.368C47.2369 28.2192 47.0737 27.9888 46.9945 27.672C46.9153 27.3576 46.9249 26.9592 47.0305 26.4768L48.5257 19.4424H44.7769L43.2817 26.4768C43.0417 27.588 43.0777 28.524 43.3945 29.2896C43.7089 30.0528 44.2729 30.6288 45.0865 31.0176H45.0841C45.8977 31.4064 46.9465 31.6032 48.2329 31.6032C49.4257 31.6032 50.4121 31.4184 51.1969 31.0536C51.9841 30.6888 52.6081 30.1488 53.0737 29.436C53.5369 28.7256 53.8825 27.8376 54.1129 26.772L55.6441 19.4448H51.8953ZM40.9657 19.8096C40.3633 19.5624 39.6385 19.44 38.7913 19.44H32.7385L30.2281 31.3224H33.9769L34.8529 27.2112H35.8345C36.1441 27.2112 36.4105 27.2544 36.6337 27.3408C36.8569 27.4272 37.0369 27.5448 37.1737 27.6936C37.3465 27.9 37.4665 28.2192 37.5361 28.6488C37.6033 29.0784 37.6273 29.6088 37.6033 30.24C37.5793 30.6288 37.5457 30.9888 37.5001 31.3248L41.4217 31.3272C41.4553 30.0096 41.4217 28.9944 41.3257 28.284C41.2297 27.5712 41.0545 27.0528 40.8025 26.7192C40.5481 26.3856 40.1881 26.1336 39.7177 25.9608V25.9272C40.2097 25.812 40.6945 25.6176 41.1649 25.3416C41.6329 25.0656 42.0265 24.6864 42.3409 24.2064C42.6577 23.724 42.8137 23.1504 42.8137 22.4856C42.8137 21.8664 42.6577 21.3288 42.3409 20.868C42.0265 20.4096 41.5681 20.0568 40.9657 19.8096ZM38.5153 24.1464C38.3665 24.3816 38.1457 24.564 37.8601 24.696C37.5745 24.828 37.2241 24.8928 36.8113 24.8928H35.0041L35.5897 22.176H37.1377C37.6537 22.176 38.0497 22.2624 38.3257 22.4424C38.5993 22.62 38.7385 22.9152 38.7385 23.328C38.7385 23.6376 38.6641 23.9112 38.5153 24.1464Z" fill="white"/>
</g>
<defs>
<clipPath id="clip0_4354_14612">
<rect width="110.4" height="48" fill="white"/>
</clipPath>
</defs>
</svg>
