<svg width="157" height="40" viewBox="0 0 157 40" fill="none" xmlns="http://www.w3.org/2000/svg">
<path d="M40 20C40 8.95 31.05 0 20 0C8.95 0 0 8.95 0 20C0 31.05 8.95 40 20 40C31.05 40 40 31.05 40 20Z" fill="url(#paint0_linear_7298_7536)"/>
<path d="M20.0001 17.5249C21.7251 16.5249 22.9001 14.6624 22.9001 12.5249C22.9001 10.3874 21.7251 8.5249 20.0001 7.5249C18.2751 8.5249 17.1001 10.3874 17.1001 12.5249C17.1001 14.6624 18.2751 16.5249 20.0001 17.5249ZM31.1751 20.0249H8.82506C8.07506 20.0249 7.48756 20.6874 7.57506 21.4249C8.27506 27.6624 13.5751 32.5249 20.0001 32.5249C26.4251 32.5249 31.7251 27.6749 32.4251 21.4249C32.5126 20.6749 31.9251 20.0249 31.1751 20.0249Z" fill="white"/>
<g clip-path="url(#clip0_7298_7536)">
<path d="M51.9075 22.0102C51.9075 22.5652 51.8588 23.0152 51.7613 23.3602C51.6638 23.7052 51.495 23.9677 51.255 24.1477C51.015 24.3277 50.6775 24.4177 50.2425 24.4177C49.6275 24.4177 49.1813 24.2377 48.9038 23.8777C48.6263 23.5177 48.4875 22.9402 48.4875 22.1452H45V22.4827C45 23.5327 45.1988 24.4327 45.5963 25.1827C45.9938 25.9327 46.5863 26.5065 47.3738 26.904C48.1613 27.3015 49.1325 27.5002 50.2875 27.5002C51.5475 27.5002 52.5825 27.294 53.3925 26.8815C54.2025 26.469 54.8025 25.854 55.1925 25.0365C55.5825 24.219 55.7775 23.2102 55.7775 22.0102V11.5927H51.9075V22.0102ZM57.7575 27.1402H61.2675V15.3952H57.7575V27.1402ZM71.9775 15.8902C71.0625 15.3652 69.99 15.1027 68.76 15.1027C67.53 15.1027 66.48 15.3577 65.565 15.8677C64.65 16.3777 63.9525 17.1015 63.4725 18.039C62.9925 18.9765 62.7525 20.0527 62.7525 21.2677C62.7525 22.4827 62.9925 23.5777 63.4725 24.5077C63.9525 25.4377 64.65 26.1615 65.565 26.679C66.48 27.1965 67.5525 27.4552 68.7825 27.4552C70.0125 27.4552 71.0775 27.1965 71.9775 26.679C72.8775 26.1615 73.5713 25.4415 74.0588 24.519C74.5463 23.5965 74.79 22.5127 74.79 21.2677C74.79 20.0227 74.55 18.984 74.07 18.0615C73.59 17.139 72.8925 16.4152 71.9775 15.8902ZM70.9763 23.1915C70.7888 23.709 70.5075 24.1102 70.1325 24.3952C69.7575 24.6802 69.3075 24.8227 68.7825 24.8227C68.2575 24.8227 67.8075 24.6802 67.4325 24.3952C67.0575 24.1102 66.7725 23.7052 66.5775 23.1802C66.3825 22.6552 66.285 22.0252 66.285 21.2902C66.285 20.5552 66.3825 19.8765 66.5775 19.344C66.7725 18.8115 67.0575 18.4065 67.4325 18.129C67.8075 17.8515 68.25 17.7127 68.76 17.7127C69.33 17.7127 69.7988 17.8627 70.1663 18.1627C70.5338 18.4627 70.8075 18.879 70.9875 19.4115C71.1675 19.944 71.2575 20.5702 71.2575 21.2902C71.2575 22.0102 71.1638 22.674 70.9763 23.1915ZM76.29 27.1402H80.16V20.8852H86.64V18.0052H80.16V14.6977H87.6525V11.5927H76.29V27.1402ZM60.5813 10.4677C60.2738 10.3027 59.925 10.2202 59.535 10.2202C59.115 10.2202 58.7513 10.3027 58.4438 10.4677C58.1363 10.6327 57.8963 10.8502 57.7238 11.1202C57.5513 11.3902 57.465 11.7127 57.465 12.0877C57.465 12.4627 57.5513 12.789 57.7238 13.0665C57.8963 13.344 58.1325 13.569 58.4325 13.7415C58.7325 13.914 59.0925 14.0002 59.5125 14.0002C59.9325 14.0002 60.2775 13.9177 60.5925 13.7527C60.9075 13.5877 61.1438 13.3627 61.3013 13.0777C61.4588 12.7927 61.5375 12.4702 61.5375 12.1102C61.5375 11.7502 61.455 11.409 61.29 11.1315C61.125 10.854 60.8888 10.6327 60.5813 10.4677ZM115.721 15.5865C114.949 15.249 113.963 15.0802 112.763 15.0802C111.563 15.0802 110.651 15.2115 109.894 15.474C109.136 15.7365 108.551 16.1265 108.139 16.644C107.726 17.1615 107.46 17.7877 107.34 18.5227H110.693C110.783 18.1327 110.981 17.8327 111.289 17.6227C111.596 17.4127 112.043 17.3077 112.628 17.3077C113.108 17.3077 113.49 17.3865 113.775 17.544C114.06 17.7015 114.263 17.9377 114.383 18.2527C114.503 18.5677 114.563 18.9652 114.563 19.4452V19.9852H112.673C111.428 19.9852 110.374 20.124 109.511 20.4015C108.649 20.679 107.993 21.0915 107.543 21.639C107.093 22.1865 106.868 22.8952 106.868 23.7652C106.868 24.5302 107.033 25.1902 107.363 25.7452C107.693 26.3002 108.161 26.724 108.769 27.0165C109.376 27.309 110.093 27.4552 110.918 27.4552C111.533 27.4552 112.084 27.3765 112.571 27.219C113.059 27.0615 113.456 26.8552 113.764 26.6002C114.071 26.3452 114.338 26.0452 114.563 25.7002H114.675L114.833 27.1402H117.96V19.7377C117.96 18.6877 117.78 17.8177 117.42 17.1277C117.06 16.4377 116.494 15.924 115.721 15.5865ZM114.563 22.6627C114.563 23.1727 114.458 23.6152 114.248 23.9902C114.038 24.3652 113.764 24.6465 113.426 24.834C113.089 25.0215 112.688 25.1152 112.223 25.1152C111.863 25.1152 111.555 25.0552 111.3 24.9352C111.045 24.8152 110.839 24.639 110.681 24.4065C110.524 24.174 110.445 23.8777 110.445 23.5177C110.445 23.0977 110.558 22.764 110.783 22.5165C111.008 22.269 111.33 22.089 111.75 21.9765C112.17 21.864 112.673 21.8077 113.258 21.8077H114.563V22.6627ZM139.323 24.3727C138.97 24.6727 138.516 24.8227 137.961 24.8227C137.406 24.8227 136.938 24.6765 136.555 24.384C136.173 24.0915 135.884 23.6752 135.689 23.1352C135.494 22.5952 135.396 21.9427 135.396 21.1777C135.396 20.4577 135.498 19.839 135.7 19.3215C135.903 18.804 136.199 18.4065 136.589 18.129C136.979 17.8515 137.444 17.7127 137.984 17.7127C138.524 17.7127 138.94 17.8365 139.278 18.084C139.615 18.3315 139.836 18.7027 139.941 19.1977H143.339C143.219 18.3577 142.926 17.6302 142.461 17.0152C141.996 16.4002 141.374 15.9277 140.594 15.5977C139.814 15.2677 138.936 15.1027 137.961 15.1027C136.731 15.1027 135.659 15.3652 134.744 15.8902C133.829 16.4152 133.12 17.1465 132.618 18.084C132.115 19.0215 131.864 20.0977 131.864 21.3127C131.864 22.5277 132.104 23.5515 132.584 24.474C133.064 25.3965 133.75 26.124 134.643 26.6565C135.535 27.189 136.581 27.4552 137.781 27.4552C138.801 27.4552 139.709 27.2827 140.504 26.9377C141.299 26.5927 141.944 26.094 142.439 25.4415C142.934 24.789 143.256 24.0052 143.406 23.0902H140.009C139.904 23.6452 139.675 24.0727 139.323 24.3727ZM156.029 21.6952C156.029 20.3602 155.804 19.194 155.354 18.1965C154.904 17.199 154.24 16.434 153.363 15.9015C152.485 15.369 151.409 15.1027 150.134 15.1027C148.949 15.1027 147.906 15.369 147.006 15.9015C146.106 16.434 145.409 17.1727 144.914 18.1177C144.419 19.0627 144.171 20.1202 144.171 21.2902C144.171 22.5652 144.423 23.664 144.925 24.5865C145.428 25.509 146.129 26.2177 147.029 26.7127C147.929 27.2077 148.986 27.4552 150.201 27.4552C151.656 27.4552 152.864 27.144 153.824 26.5215C154.784 25.899 155.444 25.0102 155.804 23.8552H152.609C152.459 24.2152 152.193 24.5002 151.81 24.7102C151.428 24.9202 150.951 25.0252 150.381 25.0252C149.781 25.0252 149.279 24.9052 148.874 24.6652C148.469 24.4252 148.161 24.0915 147.951 23.664C147.746 23.2465 147.628 22.7327 147.594 22.1227H156.029V21.6952ZM147.591 20.0527V20.0302C147.651 19.5052 147.794 19.0552 148.019 18.6802C148.244 18.3052 148.54 18.0202 148.908 17.8252C149.275 17.6302 149.699 17.5327 150.179 17.5327C150.659 17.5327 151.079 17.634 151.439 17.8365C151.799 18.039 152.08 18.3315 152.283 18.714C152.485 19.0965 152.601 19.5427 152.631 20.0527H147.591ZM128.714 15.609C128.114 15.2715 127.379 15.1027 126.509 15.1027C125.699 15.1027 124.99 15.264 124.383 15.5865C123.775 15.909 123.291 16.3777 122.931 16.9927H122.819L122.751 15.3952H119.421V27.1402H122.931V20.4802C122.931 19.5652 123.108 18.894 123.46 18.4665C123.813 18.039 124.341 17.8252 125.046 17.8252C125.751 17.8252 126.224 18.0427 126.554 18.4777C126.884 18.9127 127.049 19.5727 127.049 20.4577V27.1402H130.559V19.5127C130.559 18.5527 130.401 17.7465 130.086 17.094C129.771 16.4415 129.314 15.9465 128.714 15.609ZM91.7363 10.4677C91.4288 10.3027 91.08 10.2202 90.69 10.2202C90.27 10.2202 89.9063 10.3027 89.5988 10.4677C89.2913 10.6327 89.0513 10.8502 88.8788 11.1202C88.7063 11.3902 88.62 11.7127 88.62 12.0877C88.62 12.4627 88.7063 12.789 88.8788 13.0665C89.0513 13.344 89.2875 13.569 89.5875 13.7415C89.8875 13.914 90.2475 14.0002 90.6675 14.0002C91.0875 14.0002 91.4325 13.9177 91.7475 13.7527C92.0625 13.5877 92.2988 13.3627 92.4563 13.0777C92.6138 12.7927 92.6925 12.4702 92.6925 12.1102C92.6925 11.7502 92.61 11.409 92.445 11.1315C92.28 10.854 92.0438 10.6327 91.7363 10.4677ZM88.9125 27.1402H92.4225V15.3952H88.9125V27.1402ZM103.65 15.609C103.05 15.2715 102.315 15.1027 101.445 15.1027C100.635 15.1027 99.9263 15.264 99.3188 15.5865C98.7113 15.909 98.2275 16.3777 97.8675 16.9927H97.755L97.6875 15.3952H94.3575V27.1402H97.8675V20.4802C97.8675 19.5652 98.0438 18.894 98.3963 18.4665C98.7488 18.039 99.2775 17.8252 99.9825 17.8252C100.688 17.8252 101.16 18.0427 101.49 18.4777C101.82 18.9127 101.985 19.5727 101.985 20.4577V27.1402H105.495V19.5127C105.495 18.5527 105.338 17.7465 105.023 17.094C104.708 16.4415 104.25 15.9465 103.65 15.609Z" fill="white"/>
</g>
<defs>
<linearGradient id="paint0_linear_7298_7536" x1="0.0742857" y1="0.0742857" x2="40.0457" y2="40.0457" gradientUnits="userSpaceOnUse">
<stop offset="0.08" stop-color="#F3B561"/>
<stop offset="0.45" stop-color="#F6C586"/>
<stop offset="1" stop-color="#C78724"/>
</linearGradient>
<clipPath id="clip0_7298_7536">
<rect width="111.029" height="30" fill="white" transform="translate(45 5)"/>
</clipPath>
</defs>
</svg>
